<mxfile host="65bd71144e">
    <diagram name="Page-1" id="P1cqT171ONhztyiRMF4X">
        <mxGraphModel dx="2234" dy="1110" grid="1" gridSize="10" guides="1" tooltips="1" connect="1" arrows="1" fold="1" page="1" pageScale="1" pageWidth="1654" pageHeight="1169" math="0" shadow="0">
            <root>
                <mxCell id="0"/>
                <mxCell id="1" parent="0"/>
                <mxCell id="YBaLejDt_1ZyqJwekYMu-1" value="SDF" style="rounded=0;whiteSpace=wrap;html=1;fillColor=#ffe6cc;strokeColor=#d79b00;" parent="1" vertex="1">
                    <mxGeometry x="300" y="190" width="120" height="60" as="geometry"/>
                </mxCell>
                <mxCell id="YBaLejDt_1ZyqJwekYMu-2" value="DATA BYTE [N]" style="rounded=0;whiteSpace=wrap;html=1;fillColor=#f5f5f5;fontColor=#333333;strokeColor=#666666;" parent="1" vertex="1">
                    <mxGeometry x="420" y="190" width="120" height="60" as="geometry"/>
                </mxCell>
                <mxCell id="YBaLejDt_1ZyqJwekYMu-3" value="DATA BYTE [N-1]" style="rounded=0;whiteSpace=wrap;html=1;fillColor=#f5f5f5;fontColor=#333333;strokeColor=#666666;" parent="1" vertex="1">
                    <mxGeometry x="540" y="190" width="120" height="60" as="geometry"/>
                </mxCell>
                <mxCell id="YBaLejDt_1ZyqJwekYMu-4" value="DATA BYTE [.....]" style="rounded=0;whiteSpace=wrap;html=1;fillColor=#f5f5f5;fontColor=#333333;strokeColor=#666666;" parent="1" vertex="1">
                    <mxGeometry x="660" y="190" width="120" height="60" as="geometry"/>
                </mxCell>
                <mxCell id="YBaLejDt_1ZyqJwekYMu-5" value="DATA BYTE [0]" style="rounded=0;whiteSpace=wrap;html=1;fillColor=#f5f5f5;fontColor=#333333;strokeColor=#666666;" parent="1" vertex="1">
                    <mxGeometry x="780" y="190" width="120" height="60" as="geometry"/>
                </mxCell>
                <mxCell id="YBaLejDt_1ZyqJwekYMu-6" value="ID/LEN" style="rounded=0;whiteSpace=wrap;html=1;fillColor=#dae8fc;strokeColor=#6c8ebf;" parent="1" vertex="1">
                    <mxGeometry x="900" y="190" width="120" height="60" as="geometry"/>
                </mxCell>
                <mxCell id="YBaLejDt_1ZyqJwekYMu-7" value="EOF" style="rounded=0;whiteSpace=wrap;html=1;fillColor=#ffe6cc;strokeColor=#d79b00;" parent="1" vertex="1">
                    <mxGeometry x="1140" y="190" width="120" height="60" as="geometry"/>
                </mxCell>
                <mxCell id="YBaLejDt_1ZyqJwekYMu-8" value="CRC-8" style="rounded=0;whiteSpace=wrap;html=1;fillColor=#dae8fc;strokeColor=#6c8ebf;" parent="1" vertex="1">
                    <mxGeometry x="1020" y="190" width="120" height="60" as="geometry"/>
                </mxCell>
                <mxCell id="YBaLejDt_1ZyqJwekYMu-9" value="Packetinformation" style="endArrow=classic;startArrow=classic;html=1;rounded=0;" parent="1" edge="1">
                    <mxGeometry width="50" height="50" relative="1" as="geometry">
                        <mxPoint x="900" y="270" as="sourcePoint"/>
                        <mxPoint x="1140" y="270" as="targetPoint"/>
                    </mxGeometry>
                </mxCell>
                <mxCell id="YBaLejDt_1ZyqJwekYMu-10" value="Start Nachricht" style="endArrow=classic;startArrow=classic;html=1;rounded=0;" parent="1" edge="1">
                    <mxGeometry width="50" height="50" relative="1" as="geometry">
                        <mxPoint x="300" y="270" as="sourcePoint"/>
                        <mxPoint x="420" y="270" as="targetPoint"/>
                    </mxGeometry>
                </mxCell>
                <mxCell id="YBaLejDt_1ZyqJwekYMu-11" value="Ende Übertragung" style="endArrow=classic;startArrow=classic;html=1;rounded=0;" parent="1" edge="1">
                    <mxGeometry width="50" height="50" relative="1" as="geometry">
                        <mxPoint x="1140" y="270" as="sourcePoint"/>
                        <mxPoint x="1260" y="270" as="targetPoint"/>
                        <mxPoint as="offset"/>
                    </mxGeometry>
                </mxCell>
                <mxCell id="YBaLejDt_1ZyqJwekYMu-12" value="Nachricht" style="endArrow=classic;startArrow=classic;html=1;rounded=0;" parent="1" edge="1">
                    <mxGeometry width="50" height="50" relative="1" as="geometry">
                        <mxPoint x="420" y="270" as="sourcePoint"/>
                        <mxPoint x="900" y="270" as="targetPoint"/>
                    </mxGeometry>
                </mxCell>
                <mxCell id="YBaLejDt_1ZyqJwekYMu-13" value="SLF" style="rounded=0;whiteSpace=wrap;html=1;fillColor=#ffe6cc;strokeColor=#d79b00;" parent="1" vertex="1">
                    <mxGeometry x="300" y="360" width="120" height="60" as="geometry"/>
                </mxCell>
                <mxCell id="YBaLejDt_1ZyqJwekYMu-16" value="Transaction-Layer-Packet" style="text;html=1;align=left;verticalAlign=middle;whiteSpace=wrap;rounded=0;" parent="1" vertex="1">
                    <mxGeometry x="300" y="160" width="240" height="30" as="geometry"/>
                </mxCell>
                <mxCell id="YBaLejDt_1ZyqJwekYMu-17" value="DATA BYTE [N]" style="rounded=0;whiteSpace=wrap;html=1;fillColor=#f5f5f5;fontColor=#333333;strokeColor=#666666;" parent="1" vertex="1">
                    <mxGeometry x="420" y="360" width="120" height="60" as="geometry"/>
                </mxCell>
                <mxCell id="YBaLejDt_1ZyqJwekYMu-18" value="DATA BYTE [N-1]" style="rounded=0;whiteSpace=wrap;html=1;fillColor=#f5f5f5;fontColor=#333333;strokeColor=#666666;" parent="1" vertex="1">
                    <mxGeometry x="540" y="360" width="120" height="60" as="geometry"/>
                </mxCell>
                <mxCell id="YBaLejDt_1ZyqJwekYMu-19" value="CRC-8" style="rounded=0;whiteSpace=wrap;html=1;fillColor=#dae8fc;strokeColor=#6c8ebf;" parent="1" vertex="1">
                    <mxGeometry x="660" y="360" width="120" height="60" as="geometry"/>
                </mxCell>
                <mxCell id="YBaLejDt_1ZyqJwekYMu-20" value="EOF" style="rounded=0;whiteSpace=wrap;html=1;fillColor=#ffe6cc;strokeColor=#d79b00;" parent="1" vertex="1">
                    <mxGeometry x="780" y="360" width="120" height="60" as="geometry"/>
                </mxCell>
                <mxCell id="YBaLejDt_1ZyqJwekYMu-21" value="Start Nachricht" style="endArrow=classic;startArrow=classic;html=1;rounded=0;" parent="1" edge="1">
                    <mxGeometry width="50" height="50" relative="1" as="geometry">
                        <mxPoint x="300" y="440" as="sourcePoint"/>
                        <mxPoint x="420" y="440" as="targetPoint"/>
                    </mxGeometry>
                </mxCell>
                <mxCell id="YBaLejDt_1ZyqJwekYMu-22" value="Steuer &amp;amp; Status" style="endArrow=classic;startArrow=classic;html=1;rounded=0;" parent="1" edge="1">
                    <mxGeometry width="50" height="50" relative="1" as="geometry">
                        <mxPoint x="420" y="440" as="sourcePoint"/>
                        <mxPoint x="660" y="440" as="targetPoint"/>
                    </mxGeometry>
                </mxCell>
                <mxCell id="YBaLejDt_1ZyqJwekYMu-23" value="Prüfsumme" style="endArrow=classic;startArrow=classic;html=1;rounded=0;" parent="1" edge="1">
                    <mxGeometry width="50" height="50" relative="1" as="geometry">
                        <mxPoint x="660" y="440" as="sourcePoint"/>
                        <mxPoint x="780" y="440" as="targetPoint"/>
                    </mxGeometry>
                </mxCell>
                <mxCell id="YBaLejDt_1ZyqJwekYMu-24" value="Ende Übertragung" style="endArrow=classic;startArrow=classic;html=1;rounded=0;" parent="1" edge="1">
                    <mxGeometry width="50" height="50" relative="1" as="geometry">
                        <mxPoint x="780" y="440" as="sourcePoint"/>
                        <mxPoint x="900" y="440" as="targetPoint"/>
                    </mxGeometry>
                </mxCell>
                <mxCell id="YBaLejDt_1ZyqJwekYMu-25" value="Link-Layer-Packet" style="text;html=1;align=left;verticalAlign=middle;whiteSpace=wrap;rounded=0;" parent="1" vertex="1">
                    <mxGeometry x="300" y="330" width="240" height="30" as="geometry"/>
                </mxCell>
                <mxCell id="sUf3RIg2MLNzbsuxTUFO-13" value="C" style="rounded=0;whiteSpace=wrap;html=1;" parent="1" vertex="1">
                    <mxGeometry x="420" y="500" width="15" height="60" as="geometry"/>
                </mxCell>
                <mxCell id="sUf3RIg2MLNzbsuxTUFO-14" value="x" style="rounded=0;whiteSpace=wrap;html=1;" parent="1" vertex="1">
                    <mxGeometry x="435" y="500" width="15" height="60" as="geometry"/>
                </mxCell>
                <mxCell id="sUf3RIg2MLNzbsuxTUFO-15" value="x" style="rounded=0;whiteSpace=wrap;html=1;" parent="1" vertex="1">
                    <mxGeometry x="450" y="500" width="15" height="60" as="geometry"/>
                </mxCell>
                <mxCell id="sUf3RIg2MLNzbsuxTUFO-16" value="x" style="rounded=0;whiteSpace=wrap;html=1;" parent="1" vertex="1">
                    <mxGeometry x="465" y="500" width="15" height="60" as="geometry"/>
                </mxCell>
                <mxCell id="sUf3RIg2MLNzbsuxTUFO-17" value="x" style="rounded=0;whiteSpace=wrap;html=1;" parent="1" vertex="1">
                    <mxGeometry x="480" y="500" width="15" height="60" as="geometry"/>
                </mxCell>
                <mxCell id="sUf3RIg2MLNzbsuxTUFO-18" value="x" style="rounded=0;whiteSpace=wrap;html=1;" parent="1" vertex="1">
                    <mxGeometry x="495" y="500" width="15" height="60" as="geometry"/>
                </mxCell>
                <mxCell id="sUf3RIg2MLNzbsuxTUFO-19" value="x" style="rounded=0;whiteSpace=wrap;html=1;" parent="1" vertex="1">
                    <mxGeometry x="510" y="500" width="15" height="60" as="geometry"/>
                </mxCell>
                <mxCell id="sUf3RIg2MLNzbsuxTUFO-20" value="C" style="rounded=0;whiteSpace=wrap;html=1;" parent="1" vertex="1">
                    <mxGeometry x="525" y="500" width="15" height="60" as="geometry"/>
                </mxCell>
                <mxCell id="sUf3RIg2MLNzbsuxTUFO-22" value="" style="rounded=0;whiteSpace=wrap;html=1;" parent="1" vertex="1">
                    <mxGeometry x="540" y="500" width="15" height="60" as="geometry"/>
                </mxCell>
                <mxCell id="sUf3RIg2MLNzbsuxTUFO-23" value="" style="rounded=0;whiteSpace=wrap;html=1;" parent="1" vertex="1">
                    <mxGeometry x="555" y="500" width="15" height="60" as="geometry"/>
                </mxCell>
                <mxCell id="sUf3RIg2MLNzbsuxTUFO-24" value="" style="rounded=0;whiteSpace=wrap;html=1;" parent="1" vertex="1">
                    <mxGeometry x="570" y="500" width="15" height="60" as="geometry"/>
                </mxCell>
                <mxCell id="sUf3RIg2MLNzbsuxTUFO-25" value="" style="rounded=0;whiteSpace=wrap;html=1;" parent="1" vertex="1">
                    <mxGeometry x="585" y="500" width="15" height="60" as="geometry"/>
                </mxCell>
                <mxCell id="sUf3RIg2MLNzbsuxTUFO-26" value="" style="rounded=0;whiteSpace=wrap;html=1;" parent="1" vertex="1">
                    <mxGeometry x="600" y="500" width="15" height="60" as="geometry"/>
                </mxCell>
                <mxCell id="sUf3RIg2MLNzbsuxTUFO-27" value="" style="rounded=0;whiteSpace=wrap;html=1;" parent="1" vertex="1">
                    <mxGeometry x="615" y="500" width="15" height="60" as="geometry"/>
                </mxCell>
                <mxCell id="sUf3RIg2MLNzbsuxTUFO-28" value="" style="rounded=0;whiteSpace=wrap;html=1;" parent="1" vertex="1">
                    <mxGeometry x="630" y="500" width="15" height="60" as="geometry"/>
                </mxCell>
                <mxCell id="sUf3RIg2MLNzbsuxTUFO-29" value="" style="rounded=0;whiteSpace=wrap;html=1;" parent="1" vertex="1">
                    <mxGeometry x="645" y="500" width="15" height="60" as="geometry"/>
                </mxCell>
                <mxCell id="sUf3RIg2MLNzbsuxTUFO-30" value="" style="endArrow=none;html=1;rounded=0;" parent="1" edge="1">
                    <mxGeometry width="50" height="50" relative="1" as="geometry">
                        <mxPoint x="540" y="600" as="sourcePoint"/>
                        <mxPoint x="540" y="470" as="targetPoint"/>
                    </mxGeometry>
                </mxCell>
                <mxCell id="sUf3RIg2MLNzbsuxTUFO-31" value="" style="endArrow=classic;startArrow=classic;html=1;rounded=0;" parent="1" edge="1">
                    <mxGeometry width="50" height="50" relative="1" as="geometry">
                        <mxPoint x="540" y="580" as="sourcePoint"/>
                        <mxPoint x="660" y="580" as="targetPoint"/>
                    </mxGeometry>
                </mxCell>
                <mxCell id="sUf3RIg2MLNzbsuxTUFO-32" value="Zusatz" style="edgeLabel;html=1;align=center;verticalAlign=middle;resizable=0;points=[];" parent="sUf3RIg2MLNzbsuxTUFO-31" vertex="1" connectable="0">
                    <mxGeometry x="0.0799" y="-1" relative="1" as="geometry">
                        <mxPoint as="offset"/>
                    </mxGeometry>
                </mxCell>
                <mxCell id="sUf3RIg2MLNzbsuxTUFO-33" value="" style="endArrow=classic;startArrow=classic;html=1;rounded=0;" parent="1" edge="1">
                    <mxGeometry width="50" height="50" relative="1" as="geometry">
                        <mxPoint x="420" y="580" as="sourcePoint"/>
                        <mxPoint x="540" y="580" as="targetPoint"/>
                    </mxGeometry>
                </mxCell>
                <mxCell id="sUf3RIg2MLNzbsuxTUFO-34" value="Code" style="edgeLabel;html=1;align=center;verticalAlign=middle;resizable=0;points=[];" parent="sUf3RIg2MLNzbsuxTUFO-33" vertex="1" connectable="0">
                    <mxGeometry x="0.0799" y="-1" relative="1" as="geometry">
                        <mxPoint as="offset"/>
                    </mxGeometry>
                </mxCell>
                <mxCell id="sUf3RIg2MLNzbsuxTUFO-36" value="" style="endArrow=classic;html=1;rounded=0;fillColor=#d5e8d4;strokeColor=#82b366;strokeWidth=2;" parent="1" edge="1">
                    <mxGeometry width="50" height="50" relative="1" as="geometry">
                        <mxPoint x="532.26" y="480" as="sourcePoint"/>
                        <mxPoint x="532.26" y="500" as="targetPoint"/>
                    </mxGeometry>
                </mxCell>
                <mxCell id="sUf3RIg2MLNzbsuxTUFO-37" value="" style="endArrow=classic;html=1;rounded=0;fillColor=#d5e8d4;strokeColor=#82b366;strokeWidth=2;" parent="1" edge="1">
                    <mxGeometry width="50" height="50" relative="1" as="geometry">
                        <mxPoint x="427.26" y="480" as="sourcePoint"/>
                        <mxPoint x="427.26" y="500" as="targetPoint"/>
                    </mxGeometry>
                </mxCell>
            </root>
        </mxGraphModel>
    </diagram>
</mxfile>